<svg xmlns="http://www.w3.org/2000/svg" width="52.577" height="50.726" viewBox="0 0 52.577 50.726"><g transform="translate(-1089 -2068)"><g transform="translate(776.63 2043.939)"><g transform="translate(43.816 -202.424)" fill="none" stroke-miterlimit="10"><path d="M321.131,251.939c0-17.935-8.367-25.454-26.3-25.454S268.554,234,268.554,251.939s8.341,25.272,26.275,25.272S321.131,269.874,321.131,251.939Z" stroke="none"/><path d="M 294.8292846679688 276.2110595703125 C 303.7090148925781 276.2110595703125 309.986572265625 274.3665161132812 314.0205993652344 270.572021484375 C 318.1322937011719 266.7044982910156 320.1310424804688 260.6094665527344 320.1310424804688 251.9386749267578 C 320.1310424804688 243.2500152587891 318.1309814453125 237.1241455078125 314.0165710449219 233.2109985351562 C 309.9654235839844 229.3579864501953 303.689208984375 227.4850006103516 294.8292846679688 227.4850006103516 C 285.9722595214844 227.4850006103516 279.7005920410156 229.3578186035156 275.6559143066406 233.2104797363281 C 271.5499572753906 237.1215209960938 269.5539855957031 243.2475738525391 269.5539855957031 251.9386749267578 C 269.5539855957031 260.6118774414062 271.5486450195312 266.7070922851562 275.6519165039062 270.5725402832031 C 277.6947937011719 272.4970397949219 280.241943359375 273.887939453125 283.4388732910156 274.82470703125 C 286.6225891113281 275.757568359375 290.3484191894531 276.2110595703125 294.8292846679688 276.2110595703125 M 294.8292846679688 277.2110595703125 C 276.8948059082031 277.2110595703125 268.5539855957031 269.87353515625 268.5539855957031 251.9386749267578 C 268.5539855957031 234.0041351318359 276.8948059082031 226.4850006103516 294.8292846679688 226.4850006103516 C 312.76416015625 226.4850006103516 321.1310424804688 234.0041351318359 321.1310424804688 251.9386749267578 C 321.1310424804688 269.87353515625 312.76416015625 277.2110595703125 294.8292846679688 277.2110595703125 Z" stroke="none" fill="#707070"/></g></g><text transform="translate(1101 2080.891)" font-size="14" font-family="Helvetica"><tspan x="0" y="11">TOP</tspan></text><path d="M3556,7516.219l8-8,8,8" transform="translate(-2448.5 -5408.109)" fill="none" stroke="#000" stroke-width="2"/></g></svg>